<svg width="162" height="24" viewBox="0 0 162 24" fill="none" xmlns="http://www.w3.org/2000/svg">
<g id="Frame 2">
<path id="Fill-730_1_" fill-rule="evenodd" clip-rule="evenodd" d="M24.0018 18.6947L17.6645 10.3579V1.71789H22.8541C23.4529 1.71789 23.9519 2.22316 23.9519 2.82947V18.6947H24.0018ZM22.9539 22.2316H18.2633C17.2154 22.2316 16.2174 21.7263 15.5687 20.8674L2.04589 3.03158C1.64669 2.52632 1.99599 1.71789 2.69459 1.71789H7.38517C8.43307 1.71789 9.43107 2.22316 10.0798 3.08211L23.6026 20.9179C24.0018 21.4737 23.6525 22.2316 22.9539 22.2316ZM7.93407 22.2316H2.74449C2.14569 22.2316 1.64669 21.7263 1.64669 21.12V5.20421L7.93407 13.5916V22.2316ZM22.8541 0H16.916C16.4669 0 16.0677 0.404211 16.0677 0.858947V8.23579L11.4271 2.02105C10.479 0.757895 8.98197 0 7.38517 0H2.74449C1.2475 0 0 1.26316 0 2.77895V21.1705C0 22.7368 1.2475 23.9495 2.74449 23.9495H8.68257C9.13167 23.9495 9.53087 23.5453 9.53087 23.0905V15.6632L14.1715 21.9284C15.1196 23.2421 16.6166 24 18.2134 24H22.8042C24.3511 24 25.5487 22.7368 25.5487 21.2211V2.77895C25.5986 1.26316 24.401 0 22.8541 0Z" fill="#2165E3"/>
<path id="Fill-732_1_" fill-rule="evenodd" clip-rule="evenodd" d="M57.2101 21.7674H53.3619L43.8427 11.0307V21.7674H38.8806V2.23254H42.6782L52.248 13.2178V2.23254H57.2101V21.7674Z" fill="#2165E3"/>
<path id="Fill-734_1_" fill-rule="evenodd" clip-rule="evenodd" d="M62.1672 13.3763H67.8053C67.558 11.7819 66.5689 10.959 65.0357 10.959C63.5025 10.959 62.5134 11.9362 62.1672 13.3763ZM72.1081 16.1022L72.0586 16.2051H62.2167C62.6123 17.4909 63.552 18.5196 65.3325 18.5196C66.3216 18.5196 67.0634 18.1081 67.4591 17.4909H72.0586C71.4157 20.474 68.745 22.3256 65.3325 22.3256C60.7824 22.3256 57.7655 19.1882 57.7655 14.765C57.7655 10.3932 60.7329 7.2558 65.1346 7.2558C69.1901 7.2558 72.207 10.136 72.207 14.5078C72.207 15.0221 72.207 15.5879 72.1081 16.1022Z" fill="#2165E3"/>
<path id="Fill-736_1_" fill-rule="evenodd" clip-rule="evenodd" d="M83.599 17.0615V12.5715C82.7461 11.5393 81.6926 11.1781 80.6892 11.1781C78.7828 11.1781 77.378 12.7779 77.378 14.7907C77.378 16.8034 78.7828 18.3517 80.6892 18.3517C81.6926 18.4033 82.7461 18.0936 83.599 17.0615ZM88.3148 22.0675H83.599V21.2418C82.5454 21.9127 81.2912 22.3256 79.736 22.3256C75.9231 22.3256 72.7625 19.0742 72.7625 14.7907C72.7625 10.4555 75.9733 7.2558 79.736 7.2558C81.2912 7.2558 82.5454 7.66867 83.599 8.33958V7.56545H88.3148V22.0675Z" fill="#2165E3"/>
<path id="Fill-738_1_" fill-rule="evenodd" clip-rule="evenodd" d="M98.8682 11.7875C96.5941 11.8893 95.1605 12.5003 94.0729 13.6205V21.7674H89.4258V7.51039H94.0729V9.03793C95.3088 7.96865 96.7919 7.2558 98.8682 7.2558V11.7875Z" fill="#2165E3"/>
<path id="Fill-740_1_" fill-rule="evenodd" clip-rule="evenodd" d="M114.42 6.50735V2.23254H99.4235V21.7674H104.44V14.8581H111.964V14.7587C111.964 13.2178 112.373 11.826 113.038 10.633H104.44V6.50735H114.42Z" fill="#2165E3"/>
<path id="Fill-742_1_" fill-rule="evenodd" clip-rule="evenodd" d="M137.749 11.7875C135.475 11.8893 134.041 12.5003 132.953 13.6205V21.7674H128.306V7.51039H132.953V9.03793C134.189 7.96865 135.673 7.2558 137.749 7.2558V11.7875Z" fill="#2165E3"/>
<path id="Fill-744_1_" fill-rule="evenodd" clip-rule="evenodd" d="M161.633 13.7333V21.7674H156.927V14.4865C156.927 12.478 155.976 11.5239 154.424 11.5239C153.723 11.5239 152.972 11.8252 152.271 12.6788C152.322 13.0303 152.322 13.3818 152.322 13.7333V21.7674H147.616V14.4865C147.616 12.478 146.615 11.5239 145.113 11.5239C144.412 11.5239 143.711 11.8754 143.01 12.7793V21.7674H138.304V7.70772H143.01V8.51113C143.961 7.70772 144.963 7.2558 146.514 7.2558C148.267 7.2558 149.768 7.90857 150.82 9.1639C152.271 7.85836 153.723 7.2558 155.776 7.2558C159.18 7.2558 161.633 9.71625 161.633 13.7333Z" fill="#2165E3"/>
<path id="Fill-746_1_" fill-rule="evenodd" clip-rule="evenodd" d="M123.41 14.7651C123.41 12.9261 122.176 11.3936 120.302 11.3936C118.427 11.3936 117.145 12.875 117.145 14.7651C117.145 16.7063 118.378 18.2389 120.302 18.2389C122.176 18.2389 123.41 16.7063 123.41 14.7651ZM127.751 14.7141C127.751 19.1073 124.594 22.3256 120.252 22.3256C115.911 22.3256 112.754 19.0562 112.754 14.7141C112.754 10.423 115.911 7.2558 120.252 7.2558C124.643 7.2558 127.751 10.423 127.751 14.7141Z" fill="#2165E3"/>
</g>
</svg>
